# xmcd
#
# Track frame offsets: 
#        150
#        27501
#        61775
#        80645
#        114619
#        147058
#        171211
#        200947
#
# Disc length: 3182 seconds
#
# Revision: 0
# Processed by: cddbd v1.5.2PL0 Copyright (c) Steve Scherf et al.
# Submitted via: ExactAudioCopy v0.99pb4
#
DISCID=710c6c08
DTITLE=Warren Battiste - Quiet Storm In New Orleans
DYEAR=2007
DGENRE=Blues
TTITLE0='A' Train
TTITLE1=Autum Leaves
TTITLE2=Summertime
TTITLE3=In A Sentimental Mood
TTITLE4=Out Of Nowhere
TTITLE5=Bop For Jacques
TTITLE6=Straight, No Chaser
TTITLE7=Do You Know What It Means To Miss New Orleans?
EXTD=
EXTT0=
EXTT1=
EXTT2=
EXTT3=
EXTT4=
EXTT5=
EXTT6=
EXTT7=
PLAYORDER=
